#!OML:ASF F:\VICON\USERDATA\INSTALL\rory3\rory3.ASF
:FULLY-SPECIFIED
:DEGREES
1
root 3.22142 17.3849 -45.2819 13.5554 -1.18946 1.72331
lowerback -4.35395 -2.31769 -2.09274
upperback -2.5224 -3.02058 1.08868
thorax 0.0133429 -1.48759 2.15595
lowerneck -17.0287 -2.79379 -6.94345
upperneck 19.1419 -3.02668 4.54236
head 8.99055 -1.44012 2.31707
rclavicle 2.74323e-014 -1.03368e-014
rhumerus -39.1105 5.3055 -87.0647
rradius 32.3423
rwrist 1.36748
rhand -27.1652 -41.1793
rfingers 7.12502
rthumb -0.579602 -71.1583
lclavicle 2.74323e-014 -1.03368e-014
lhumerus -30.0612 -14.8215 93.7897
lradius 32.619
lwrist 9.35583
lhand -33.1027 -25.595
lfingers 7.12502
lthumb -6.31338 4.2909
rfemur -46.4631 7.94739 13.2523
rtibia 26.9049
rfoot -9.26041 -16.6065
rtoes -7.89018
lfemur -7.2535 -5.5827 -28.3591
ltibia 16.9832
lfoot -21.6804 10.5891
ltoes 4.91762
2
root 3.20752 17.3849 -45.1919 13.486 -1.25701 1.80336
lowerback -3.81688 -2.09825 -2.26849
upperback -2.69057 -2.73387 0.999482
thorax -0.470507 -1.3349 2.20155
lowerneck -17.34 -2.99606 -6.75282
upperneck 19.3809 -3.32396 4.45512
head 9.14351 -1.57194 2.2165
rclavicle -1.32937e-014 -1.51076e-014
rhumerus -39.4915 4.58779 -86.8136
rradius 32.3543
rwrist 1.52791
rhand -26.3577 -43.625
rfingers 7.12502
rthumb 0.200221 -73.6047
lclavicle -1.32937e-014 -1.51076e-014
lhumerus -30.126 -15.3639 93.933
lradius 32.678
lwrist 9.42807
lhand -33.3501 -26.0271
lfingers 7.12502
lthumb -6.55224 3.8515
rfemur -46.3843 8.79971 12.5059
rtibia 25.9788
rfoot -8.76149 -16.9829
rtoes -10.1656
lfemur -6.3802 -5.40301 -28.4435
ltibia 16.1126
lfoot -21.4819 10.4421
ltoes 4.14219
3
root 3.19896 17.3797 -45.1166 13.8044 -1.3513 1.87347
lowerback -4.02281 -2.06978 -2.32013
upperback -3.06642 -2.69246 0.970647
thorax -0.743709 -1.30644 2.20365
lowerneck -16.269 -2.93802 -6.88019
upperneck 19.1672 -3.29955 4.54421
head 8.8776 -1.57296 2.27694
rclavicle 3.95085e-015 -1.39149e-015
rhumerus -40.1526 4.55366 -86.8191
rradius 32.3655
rwrist 1.47679
rhand -26.7744 -42.6507
rfingers 7.12502
rthumb -0.202242 -72.6303
lclavicle 3.95085e-015 -1.39149e-015
lhumerus -30.5764 -15.1735 93.9441
lradius 32.7507
lwrist 9.27571
lhand -33.5769 -26.0187
lfingers 7.12502
lthumb -6.77114 3.853
rfemur -46.7472 9.23418 11.9551
rtibia 25.1798
rfoot -8.13488 -17.1794
rtoes -11.6701
lfemur -6.13078 -5.40722 -28.5088
ltibia 15.4788
lfoot -21.278 10.4915
ltoes 3.99335
4
root 3.18659 17.3788 -45.0293 13.7678 -1.07215 1.90054
lowerback -4.18841 -2.16214 -2.31069
upperback -3.18854 -2.81295 0.957532
thorax -0.771578 -1.36549 2.17672
lowerneck -15.3295 -2.92134 -6.94191
upperneck 18.963 -3.34076 4.62864
head 8.64257 -1.59912 2.31578
rclavicle -1.19022e-014 -9.34288e-015
rhumerus -40.6133 4.50035 -86.8276
rradius 32.403
rwrist 1.61435
rhand -26.675 -42.8825
rfingers 7.12502
rthumb -0.10623 -72.8622
lclavicle -1.19022e-014 -9.34288e-015
lhumerus -30.8366 -14.9051 93.82
lradius 32.7649
lwrist 9.02558
lhand -33.5646 -26.0119
lfingers 7.12502
lthumb -6.75927 3.86018
rfemur -46.5754 9.5887 11.5334
rtibia 24.4277
rfoot -7.60602 -17.5715
rtoes -11.8507
lfemur -5.41821 -5.49559 -28.4492
ltibia 14.812
lfoot -21.1356 10.3463
ltoes 2.81951
5
root 3.17131 17.3584 -44.9442 14.0993 -0.679728 1.91544
lowerback -4.31554 -2.30289 -2.18523
upperback -2.92697 -3.00016 0.969477
thorax -0.426858 -1.46794 2.09884
lowerneck -17.2718 -3.03489 -6.93526
upperneck 19.5975 -3.39145 4.67992
head 9.21765 -1.59468 2.31798
rclavicle 9.93923e-015 -8.34896e-015
rhumerus -39.8235 4.57832 -86.8201
rradius 32.3951
rwrist 1.70331
rhand -26.61 -43.1507
rfingers 7.12502
rthumb -0.0434557 -73.1305
lclavicle 9.93923e-015 -8.34896e-015
lhumerus -29.7889 -14.8273 93.4067
lradius 32.6635
lwrist 9.18065
lhand -33.4417 -26.4961
lfingers 7.12502
lthumb -6.64059 3.37975
rfemur -46.7743 9.61734 11.2724
rtibia 23.619
rfoot -5.8181 -17.7755
rtoes -12.2363
lfemur -5.31017 -5.51225 -28.2939
ltibia 14.517
lfoot -21.1164 9.98575
ltoes 3.23164
6
root 3.16347 17.3552 -44.8701 14.1522 -1.2741 1.78669
lowerback -4.55649 -2.08448 -2.27066
upperback -3.23126 -2.70275 1.01878
thorax -0.615454 -1.31212 2.20842
lowerneck -15.436 -2.89243 -7.00296
upperneck 19.0028 -3.29633 4.70785
head 8.67488 -1.57318 2.35803
rclavicle 1.01629e-014 -1.39149e-014
rhumerus -40.6718 4.6724 -86.7636
rradius 32.5161
rwrist 1.67034
rhand -26.6855 -43.7312
rfingers 7.12502
rthumb -0.116327 -73.7109
lclavicle 1.01629e-014 -1.39149e-014
lhumerus -30.4808 -14.6872 93.6074
lradius 32.7804
lwrist 9.32248
lhand -33.6801 -27.1412
lfingers 7.12502
lthumb -6.87076 2.72727
rfemur -46.8308 10.2612 10.9226
rtibia 22.911
rfoot -6.96697 -16.7589
rtoes -9.85431
lfemur -4.98248 -5.29115 -28.3209
ltibia 14.2332
lfoot -21.0655 10.2718
ltoes 3.24914
7
root 3.1434 17.3306 -44.7784 14.2709 -1.18077 1.79527
lowerback -4.80258 -2.09445 -2.22673
upperback -3.50177 -2.71401 0.935144
thorax -0.76241 -1.31473 2.0946
lowerneck -14.145 -2.85075 -7.01228
upperneck 18.612 -3.34244 4.82544
head 8.31398 -1.5989 2.39974
rclavicle -1.2598e-014 -1.59028e-015
rhumerus -41.3209 4.41694 -86.8175
rradius 32.4412
rwrist 1.72079
rhand -27.1868 -43.2083
rfingers 7.12502
rthumb -0.600519 -73.1872
lclavicle -1.2598e-014 -1.59028e-015
lhumerus -30.9862 -14.5678 93.4909
lradius 32.725
lwrist 9.04823
lhand -33.9565 -27.8789
lfingers 7.12502
lthumb -7.13762 1.98076
rfemur -46.7552 9.9724 11.2708
rtibia 22.2705
rfoot -4.60047 -16.5561
rtoes -17.0643
lfemur -4.71224 -5.32597 -28.2481
ltibia 14.0692
lfoot -20.9498 10.2261
ltoes 3.31871
8
root 3.12353 17.3183 -44.6834 14.3227 -1.11543 1.81125
lowerback -3.65864 -2.10002 -2.14265
upperback -3.05242 -2.74551 0.997477
thorax -0.935993 -1.33316 2.14396
lowerneck -18.8268 -3.18994 -7.19805
upperneck 20.3726 -3.48226 4.84826
head 9.78877 -1.62172 2.40577
rclavicle 2.54693e-014 5.76476e-015
rhumerus -39.6241 4.43527 -86.6313
rradius 32.0459
rwrist 1.62838
rhand -28.3464 -41.4904
rfingers 7.12502
rthumb -1.72046 -71.4632
lclavicle 2.54693e-014 5.76476e-015
lhumerus -29.0739 -14.2665 92.9626
lradius 32.4001
lwrist 8.76542
lhand -34.2144 -27.7572
lfingers 7.12502
lthumb -7.38649 2.09386
rfemur -46.7934 9.87998 11.4033
rtibia 22.0792
rfoot -3.98665 -16.3829
rtoes -18.9197
lfemur -4.1519 -5.20146 -28.1895
ltibia 13.5736
lfoot -20.809 9.9575
ltoes 2.57304
9
root 3.10571 17.3218 -44.5851 14.3664 -0.999819 1.88577
lowerback -4.72027 -2.12923 -2.25052
upperback -2.76869 -2.7564 0.945297
thorax -0.0497784 -1.35142 2.10148
lowerneck -17.7617 -3.15454 -7.35726
upperneck 19.7711 -3.51035 5.11331
head 9.39158 -1.62812 2.52156
rclavicle 2.05991e-014 -1.47101e-014
rhumerus -39.3778 4.23676 -86.5817
rradius 31.833
rwrist 1.77504
rhand -28.5616 -41.2854
rfingers 7.12502
rthumb -1.92827 -71.2564
lclavicle 2.05991e-014 -1.47101e-014
lhumerus -28.7488 -14.0906 92.7118
lradius 32.2342
lwrist 8.52497
lhand -33.5653 -27.3187
lfingers 7.12502
lthumb -6.75995 2.55343
rfemur -46.7672 10.1266 11.0696
rtibia 22.0624
rfoot -4.69618 -16.546
rtoes -16.6271
lfemur -3.51202 -5.06571 -28.1775
ltibia 13.0529
lfoot -20.6996 9.52015
ltoes 2.15162
10
root 3.08221 17.3428 -44.4852 14.357 -0.496581 1.99971
lowerback -4.32491 -2.2932 -2.50401
upperback -3.35864 -2.97968 1.02287
thorax -0.849103 -1.44261 2.34389
lowerneck -16.443 -3.1008 -7.40662
upperneck 19.8537 -3.50953 5.03947
head 9.17834 -1.65927 2.51331
rclavicle 1.56543e-015 5.96354e-015
rhumerus -40.4889 4.34572 -86.5319
rradius 31.841
rwrist 1.83216
rhand -26.6291 -43.6882
rfingers 7.12502
rthumb -0.0618428 -73.6679
lclavicle 1.56543e-015 5.96354e-015
lhumerus -29.7595 -13.6501 92.8505
lradius 32.3166
lwrist 8.51348
lhand -32.9005 -26.7896
lfingers 7.12502
lthumb -6.11813 3.10207
rfemur -46.6062 10.9145 10.086
rtibia 22.2712
rfoot -7.63329 -16.9913
rtoes -7.14158
lfemur -2.93667 -5.00843 -28.0575
ltibia 12.7033
lfoot -20.5176 9.08339
ltoes 0.246099
11
root 3.05334 17.3438 -44.381 14.0611 0.0247965 1.98443
lowerback -3.94022 -2.45296 -2.575
upperback -3.62029 -3.20232 1.05707
thorax -1.31465 -1.54271 2.43482
lowerneck -15.4295 -3.07562 -7.30167
upperneck 19.7793 -3.54946 4.91971
head 8.96544 -1.69697 2.45562
rclavicle -4.26145e-014 -6.16232e-015
rhumerus -41.2626 4.37688 -86.6075
rradius 31.8494
rwrist 1.80485
rhand -27.1368 -43.1858
rfingers 7.12502
rthumb -0.552186 -73.1648
lclavicle -4.26145e-014 -6.16232e-015
lhumerus -30.4472 -13.3627 92.831
lradius 32.3015
lwrist 8.32747
lhand -32.8371 -26.9588
lfingers 7.12502
lthumb -6.05697 2.93461
rfemur -46.1498 10.9875 10.1696
rtibia 22.5856
rfoot -8.2718 -17.9743
rtoes -7.28555
lfemur -1.97908 -4.92223 -27.8062
ltibia 12.2229
lfoot -20.2628 8.78196
ltoes -1.65591
12
root 3.03946 17.3214 -44.3014 14.8155 -0.929215 1.78118
lowerback -5.14035 -2.13774 -2.43403
upperback -3.31462 -2.75467 1.00024
thorax -0.367466 -1.33844 2.25768
lowerneck -16.2996 -3.17269 -7.18894
upperneck 19.7504 -3.65118 4.93908
head 9.11975 -1.7212 2.42384
rclavicle -7.92654e-015 9.93923e-016
rhumerus -40.2312 4.04879 -86.5323
rradius 31.5716
rwrist 1.91788
rhand -27.5138 -43.1856
rfingers 7.12502
rthumb -0.916351 -73.1634
lclavicle -7.92654e-015 9.93923e-016
lhumerus -29.4094 -13.2909 92.3745
lradius 32.1934
lwrist 8.31268
lhand -33.0333 -27.2074
lfingers 7.12502
lthumb -6.2464 2.68052
rfemur -47.335 10.7752 10.7044
rtibia 22.9799
rfoot -7.90538 -16.6661
rtoes -7.0848
lfemur -2.38304 -4.56916 -27.788
ltibia 11.9211
lfoot -19.719 9.25485
ltoes -2.98488
